<?xml version="1.0" encoding="utf-8"?><svg viewBox="0 0 52 57" xmlns="http://www.w3.org/2000/svg" xmlns:xlink="http://www.w3.org/1999/xlink"><style>:root>svg{display:none}:root>svg:target{display:block}</style><svg fill="none" viewBox="0 0 18 19" id="apple" xmlns="http://www.w3.org/2000/svg"><path d="M14.54 10.083a4.128 4.128 0 011.965-3.464 4.225 4.225 0 00-3.33-1.8c-1.4-.146-2.758.839-3.472.839-.727 0-1.826-.824-3.01-.8a4.434 4.434 0 00-3.73 2.276c-1.614 2.793-.41 6.898 1.135 9.156.773 1.105 1.677 2.34 2.859 2.296 1.157-.048 1.589-.738 2.986-.738 1.383 0 1.789.738 2.995.71 1.242-.02 2.024-1.11 2.77-2.226a9.144 9.144 0 001.266-2.58 3.988 3.988 0 01-2.435-3.67zM12.26 3.335a4.065 4.065 0 00.93-2.912 4.135 4.135 0 00-2.676 1.384 3.868 3.868 0 00-.954 2.805 3.42 3.42 0 002.7-1.277z" fill="#fff"/></svg><svg fill="none" viewBox="0 0 24 24" id="arrow-down" xmlns="http://www.w3.org/2000/svg"><path d="M8.12 9.29L12 13.17l3.88-3.88a.996.996 0 111.41 1.41l-4.59 4.59a.996.996 0 01-1.41 0L6.7 10.7a.996.996 0 010-1.41c.39-.38 1.03-.39 1.42 0z" fill="#000" fill-opacity=".54"/></svg><svg fill="none" viewBox="0 0 24 24" id="burger-close" xmlns="http://www.w3.org/2000/svg"><path d="M18.3 5.71a.996.996 0 00-1.41 0L12 10.59 7.11 5.7A.996.996 0 105.7 7.11L10.59 12 5.7 16.89a.996.996 0 101.41 1.41L12 13.41l4.89 4.89a.996.996 0 101.41-1.41L13.41 12l4.89-4.89c.38-.38.38-1.02 0-1.4z" fill="#FF3030"/></svg><svg fill="none" viewBox="0 0 24 24" id="burger-open" xmlns="http://www.w3.org/2000/svg"><rect x="2" y="4" width="20" height="2" rx="1" fill="#FF6C2D"/><rect x="2" y="10" width="20" height="2" rx="1" fill="#FF6C2D"/><rect x="2" y="16" width="20" height="2" rx="1" fill="#FF6C2D"/></svg><svg fill="none" viewBox="0 0 50 50" id="circles" xmlns="http://www.w3.org/2000/svg"><path d="M15 36.667a6.667 6.667 0 100-13.334 6.667 6.667 0 000 13.334zM30.834 41.667a4.167 4.167 0 100-8.334 4.167 4.167 0 000 8.334zM31.667 28.333c5.523 0 10-4.477 10-10 0-5.522-4.477-10-10-10s-10 4.477-10 10 4.477 10 10 10z" fill="#FF6C2D"/></svg><svg fill="none" viewBox="0 0 40 40" id="close" xmlns="http://www.w3.org/2000/svg"><path d="M30.498 9.517a1.66 1.66 0 00-2.35 0l-8.15 8.133-8.15-8.15a1.66 1.66 0 00-2.35 0c-.65.65-.65 1.7 0 2.35l8.15 8.15-8.15 8.15c-.65.65-.65 1.7 0 2.35.65.65 1.7.65 2.35 0l8.15-8.15 8.15 8.15c.65.65 1.7.65 2.35 0 .65-.65.65-1.7 0-2.35L22.348 20l8.15-8.15a1.67 1.67 0 000-2.333z" fill="#FF3030"/></svg><svg fill="none" viewBox="0 0 24 24" id="close-gray" xmlns="http://www.w3.org/2000/svg"><path d="M18.3 5.71a.996.996 0 00-1.41 0L12 10.59 7.11 5.7A.996.996 0 105.7 7.11L10.59 12 5.7 16.89a.996.996 0 101.41 1.41L12 13.41l4.89 4.89a.996.996 0 101.41-1.41L13.41 12l4.89-4.89c.38-.38.38-1.02 0-1.4z" fill="#000" fill-opacity=".54"/></svg><svg fill="none" viewBox="0 0 50 50" id="dollar" xmlns="http://www.w3.org/2000/svg"><path d="M24.584 22.708c-4.73-1.229-6.25-2.5-6.25-4.479 0-2.27 2.104-3.854 5.625-3.854 2.958 0 4.437 1.125 4.979 2.917.25.833.937 1.458 1.812 1.458h.625c1.375 0 2.355-1.354 1.875-2.646-.875-2.458-2.916-4.5-6.166-5.291V9.374a3.12 3.12 0 00-3.125-3.125 3.12 3.12 0 00-3.125 3.125v1.375c-4.042.875-7.292 3.5-7.292 7.52 0 4.813 3.98 7.21 9.792 8.605 5.208 1.25 6.25 3.083 6.25 5.02 0 1.438-1.021 3.73-5.625 3.73-3.438 0-5.209-1.23-5.896-2.98-.313-.812-1.021-1.395-1.875-1.395h-.583c-1.396 0-2.376 1.417-1.855 2.708 1.188 2.896 3.959 4.605 7.084 5.271v1.396a3.12 3.12 0 003.125 3.125 3.12 3.12 0 003.125-3.125v-1.354c4.062-.771 7.291-3.125 7.291-7.396 0-5.917-5.062-7.938-9.791-9.167z" fill="#FF6C2D"/></svg><svg fill="none" viewBox="0 0 32 24" id="eng" xmlns="http://www.w3.org/2000/svg"><rect width="32" height="24" rx="2" fill="#fff"/><mask id="ia" style="mask-type:alpha" maskUnits="userSpaceOnUse" x="0" y="0" width="32" height="24"><rect width="32" height="24" rx="2" fill="#fff"/></mask><g mask="url(#ia)"><path fill="#0A17A7" d="M0 0h32v24H0z"/><path fill-rule="evenodd" clip-rule="evenodd" d="M-1.466-2.3l13.657 9.672V-1.6h7.619v8.972L33.466-2.3 35.17.353 24.373 8H32v8h-7.627l10.797 7.647-1.704 2.653-13.656-9.672V25.6h-7.62v-8.972L-1.465 26.3l-1.704-2.653L7.628 16H0V8h7.627L-3.17.353-1.466-2.3z" fill="#fff"/><path d="M21.335 7.599L35.81-2.4M22.872 16.437l12.976 9.184M9.15 7.572L-4.387-2.005M10.617 16.326L-4.386 26.773" stroke="#DB1F35" stroke-width=".667" stroke-linecap="round"/><path fill-rule="evenodd" clip-rule="evenodd" d="M0 14.4h13.714V24h4.572v-9.6H32V9.6H18.286V0h-4.572v9.6H0v4.8z" fill="#E6273E"/></g></svg><svg fill="none" viewBox="0 0 50 50" id="fast" xmlns="http://www.w3.org/2000/svg"><path d="M40.542 20.833a2.083 2.083 0 00-.146 2.084 15.732 15.732 0 011.084 3.77 16.668 16.668 0 01-1.438 9.855 2.083 2.083 0 01-1.854 1.104H11.834a2.083 2.083 0 01-1.855-1.125 16.666 16.666 0 0117.105-23.896c1.513.178 2.993.57 4.396 1.167a2.083 2.083 0 002.083-.146 2.082 2.082 0 00-.354-3.667 20.833 20.833 0 00-26.23 29.604 4.167 4.167 0 003.584 2.084h28.854a4.167 4.167 0 003.625-2.084 20.833 20.833 0 001.146-18.52 2.084 2.084 0 00-3.646-.23z" fill="#FF6C2D"/><path d="M22.063 26.23a4.169 4.169 0 105.896 5.895L39.75 14.437 22.063 26.23z" fill="#FF6C2D"/></svg><svg fill="none" viewBox="0 0 50 50" id="geometric" xmlns="http://www.w3.org/2000/svg"><path d="M23.23 7.083L15.48 19.75c-.855 1.375.145 3.167 1.77 3.167h15.48c1.624 0 2.624-1.792 1.77-3.167L26.77 7.083a2.068 2.068 0 00-3.54 0zM36.458 45.833a9.375 9.375 0 100-18.75 9.375 9.375 0 000 18.75zM8.333 44.792h12.5a2.09 2.09 0 002.084-2.084v-12.5a2.09 2.09 0 00-2.084-2.083h-12.5a2.09 2.09 0 00-2.083 2.083v12.5a2.09 2.09 0 002.083 2.084z" fill="#FF6C2D"/></svg><svg fill="none" viewBox="0 0 18 18" id="google-play" xmlns="http://www.w3.org/2000/svg"><path d="M10.45 9.002l-7.157 6.89a1.217 1.217 0 01-.53-1.015V3.127a1.218 1.218 0 01.53-1.016l7.156 6.891zM12.955 6.595l-2.504 2.407-7.157-6.891a1.224 1.224 0 011.32-.078l8.341 4.562zM15.991 9.002c.005.459-.244.882-.647 1.1l-2.388 1.308-2.505-2.408 2.505-2.407 2.388 1.307c.403.219.652.642.647 1.1zM12.954 11.41l-8.34 4.562a1.24 1.24 0 01-1.237-.02.954.954 0 01-.084-.058l7.157-6.892 2.504 2.408z" fill="#fff" stroke="#FF6C2D" stroke-width=".949"/></svg><svg fill="none" viewBox="0 0 50 50" id="heart" xmlns="http://www.w3.org/2000/svg"><path d="M40.959 8.312c-5.5-3.75-12.292-2-15.959 2.292-3.666-4.292-10.458-6.062-15.958-2.292-2.917 2-4.75 5.376-4.875 8.938-.292 8.083 6.875 14.563 17.812 24.5l.209.188a4.158 4.158 0 005.604-.021l.229-.209c10.938-9.916 18.083-16.395 17.813-24.479-.126-3.541-1.959-6.916-4.876-8.917zm-15.75 30.334l-.209.208-.208-.208c-9.917-8.98-16.459-14.917-16.459-20.938 0-4.166 3.126-7.291 7.292-7.291 3.209 0 6.334 2.062 7.438 4.916h3.896c1.083-2.854 4.208-4.916 7.416-4.916 4.167 0 7.292 3.125 7.292 7.291 0 6.021-6.542 11.959-16.459 20.938z" fill="#FF6C2D"/></svg><svg fill="none" viewBox="0 0 32 24" id="il" xmlns="http://www.w3.org/2000/svg"><rect x=".25" y=".25" width="31.5" height="23.5" rx="1.75" fill="#fff" stroke="#F5F5F5" stroke-width=".5"/><mask id="na" style="mask-type:alpha" maskUnits="userSpaceOnUse" x="0" y="0" width="32" height="24"><rect x=".25" y=".25" width="31.5" height="23.5" rx="1.75" fill="#fff" stroke="#fff" stroke-width=".5"/></mask><g mask="url(#na)"><path fill-rule="evenodd" clip-rule="evenodd" d="M0 4.8h32V0H0v4.8zM0 24h32v-4.8H0V24z" fill="#0E46D4"/><path d="M11.905 14.242l-.264.497h8.725l-.269-.507-3.81-7.2-.284-.537-.289.546-3.81 7.2z" stroke="#093EC5" stroke-width=".667"/><path d="M11.905 9.759l-.264-.498h8.725l-.269.507-3.81 7.2-.284.538-.289-.547-3.81-7.2z" stroke="#093EC5" stroke-width=".667"/></g></svg><svg fill="none" viewBox="0 0 52 57" id="logo" xmlns="http://www.w3.org/2000/svg"><path d="M18.918 23.337c3.516-3.561 8.688-4.845 13.758-3.1 1.836.63 3.385 1.84 4.79 3.185a4.456 4.456 0 003.097 1.248h9.86c1.4 0 2.105-1.72 1.113-2.72l-18.764-19a6.556 6.556 0 00-9.364 0L1.618 25.027a5.648 5.648 0 000 7.917 5.475 5.475 0 007.816 0l9.484-9.607z" fill="#FF6C2D"/><path d="M32.772 55.016L51.494 36.05c.992-1.005.287-2.72-1.113-2.72H40.157c-3.367 0-6.458-1.538-8.868-3.919a4.467 4.467 0 00-6.326.043L12.68 41.896a1.605 1.605 0 000 2.253l10.727 10.867a6.556 6.556 0 009.364 0z" fill="#FF6C2D"/><g clip-path="url(#oclip0_1897_32437)"><path d="M29.82 11.008c-.359-.345-.596-.701-.712-1.068a1.794 1.794 0 01-.006-1.094c.112-.363.329-.71.651-1.044.325-.337.672-.563 1.04-.679.37-.119.742-.125 1.117-.02.38.106.745.327 1.095.663.231.223.404.45.517.682.117.228.185.465.204.71l-.63.263a2.477 2.477 0 00-.1-.445 1.394 1.394 0 00-.18-.356 2.066 2.066 0 00-.295-.345c-.349-.336-.71-.492-1.082-.468-.366.024-.727.22-1.08.587-.355.366-.541.727-.558 1.081-.015.358.16.712.525 1.063.123.119.258.226.404.32.15.098.307.183.47.254l-.343.139.92-.951-.745-.718.409-.424 1.228 1.183-1.477 1.528a2.903 2.903 0 01-.698-.333 4.227 4.227 0 01-.675-.528zm1.805 1.652l2.2-2.276.564.543-2.2 2.277-.564-.544zm2.582-2.735l.531-.55.627.605-.53.55-.628-.605zm-1.325 5.896c-.21-.203-.38-.41-.508-.62a1.953 1.953 0 01-.25-.642l.513-.288c.032.141.078.275.136.4.058.127.128.246.21.36.082.114.174.22.277.318.21.203.418.302.622.295.204 0 .399-.097.585-.29l.527-.545.045.044c-.2.11-.418.14-.655.091a1.255 1.255 0 01-.636-.343 1.444 1.444 0 01-.407-.653c-.06-.238-.05-.483.031-.736.082-.252.234-.494.458-.725.223-.232.459-.391.706-.478.25-.09.493-.108.73-.053.244.055.468.18.673.378.193.185.315.393.366.622a.903.903 0 01-.068.648l-.015-.066.468-.394.546.527a5.935 5.935 0 00-.585.533l-1.564 1.618c-.345.357-.706.535-1.082.533-.375.004-.75-.174-1.123-.534zm1.437-1.505c.181.174.382.252.603.233.228-.019.45-.14.668-.366.218-.226.331-.45.339-.675.01-.222-.074-.42-.255-.594-.183-.176-.388-.257-.612-.241-.224.016-.446.136-.663.362-.218.225-.333.451-.343.679-.008.225.08.425.263.602zm1.2 2.097l.358-.37 2.99-.244-.13.135-1.427-1.374.41-.424 1.936 1.866-.357.37-3.017.244.14-.153 1.494 1.44-.41.423-1.986-1.913zm1.398 3.321l.3-.572c.17.106.323.186.457.24a.99.99 0 00.388.077c.124-.002.255-.032.393-.09l.37-.158-.227.208 1.237-3.265.6.579-1.003 2.463-.13-.127 2.433-1.084.57.548-3.361 1.402c-.226.096-.43.157-.613.184a1.571 1.571 0 01-.965-.138 3.367 3.367 0 01-.45-.267z" fill="#EAF4F4"/></g><defs><clipPath id="oclip0_1897_32437"><path fill="#fff" transform="rotate(45.252 8.729 40.855) skewX(-.091)" d="M0 0h16.765v6.112H0z"/></clipPath></defs></svg><svg viewBox="0 0 15 16" id="logo16x16" xmlns="http://www.w3.org/2000/svg"><defs><clipPath id="pa"><path d="M8 1h5v5H8zm0 0"/></clipPath><clipPath id="pb"><path d="M9.117 1.656l3.403 3.34-1.254 1.207L7.859 2.86zm0 0"/></clipPath></defs><path d="M5.457 6.55c1.016-1 2.508-1.359 3.969-.87.531.175.976.515 1.383.894a1.3 1.3 0 00.89.352h2.848c.402 0 .605-.485.32-.766L9.453.828a1.922 1.922 0 00-2.7 0L.47 7.023a1.552 1.552 0 000 2.223 1.61 1.61 0 002.254 0zm0 0" fill="#ff6c2d"/><path d="M9.453 15.441l5.402-5.32a.448.448 0 00-.324-.766h-2.949c-.969 0-1.86-.43-2.555-1.097A1.316 1.316 0 007.2 8.27l-3.543 3.492a.446.446 0 000 .633l3.098 3.046a1.922 1.922 0 002.7 0zm0 0" fill="#ff6c2d"/><g clip-path="url(#pa)"><g clip-path="url(#pb)"><path d="M8.602 3.09a.71.71 0 01-.204-.3.479.479 0 01-.003-.306.718.718 0 01.187-.293.69.69 0 01.3-.191.56.56 0 01.321-.008.764.764 0 01.317.188.745.745 0 01.152.191c.031.063.05.129.058.2l-.183.074a.861.861 0 00-.027-.125c-.016-.036-.032-.07-.055-.102a.44.44 0 00-.082-.094c-.102-.097-.207-.14-.313-.133a.502.502 0 00-.312.164c-.102.102-.156.204-.16.305-.004.102.047.2.148.297a.904.904 0 00.254.16l-.098.04.266-.266-.215-.2.117-.12.352.331-.426.43a.904.904 0 01-.2-.094 1.225 1.225 0 01-.194-.148zm.52.465l.636-.64.16.151-.633.641zm.745-.77l.153-.152.183.168-.156.156zm-.383 1.656a.955.955 0 01-.144-.175.475.475 0 01-.074-.18l.148-.082c.008.043.024.078.04.113.015.035.038.07.062.102.023.031.05.062.078.09.062.058.12.086.18.082a.23.23 0 00.167-.082l.153-.153.011.012a.275.275 0 01-.187.027.368.368 0 01-.184-.097.41.41 0 01-.117-.184.376.376 0 01.008-.207.568.568 0 01.133-.203.568.568 0 01.203-.133.36.36 0 01.21-.016c.071.016.138.051.196.106a.38.38 0 01.106.176.248.248 0 01-.02.183l-.004-.02.133-.109.16.145a1.503 1.503 0 00-.168.152l-.453.453a.429.429 0 01-.312.149c-.11.004-.215-.047-.325-.149zm.414-.421c.055.046.114.07.176.062.067-.004.13-.039.192-.102.062-.062.097-.125.097-.187.004-.063-.02-.117-.074-.168a.218.218 0 00-.176-.066.291.291 0 00-.191.101.294.294 0 00-.098.188c-.004.066.024.12.074.172zm.348.585l.102-.101.863-.07-.035.039-.414-.387.117-.117.559.523-.102.102-.871.07.043-.043.43.402-.118.122zm.402.934l.086-.16c.051.031.094.05.133.066a.31.31 0 00.113.024.32.32 0 00.114-.028l.105-.043-.066.059.36-.918.171.164-.289.692-.04-.036.704-.304.164.152-.969.395a.644.644 0 01-.324.055.727.727 0 01-.262-.117zm0 0" fill="#eaf4f4"/></g></g></svg><svg fill="none" viewBox="0 0 40 40" id="plus" xmlns="http://www.w3.org/2000/svg"><path d="M30 21.667h-8.334V30c0 .917-.75 1.667-1.666 1.667-.917 0-1.667-.75-1.667-1.667v-8.333H10c-.917 0-1.667-.75-1.667-1.667s.75-1.667 1.667-1.667h8.333V10c0-.917.75-1.667 1.667-1.667.916 0 1.666.75 1.666 1.667v8.333H30c.916 0 1.666.75 1.666 1.667s-.75 1.667-1.666 1.667z" fill="#5C5C5C"/></svg><svg fill="none" viewBox="0 0 18 18" id="profile" xmlns="http://www.w3.org/2000/svg"><path d="M9 1.5C4.86 1.5 1.5 4.86 1.5 9c0 4.14 3.36 7.5 7.5 7.5 4.14 0 7.5-3.36 7.5-7.5 0-4.14-3.36-7.5-7.5-7.5zm0 2.25A2.247 2.247 0 0111.25 6 2.247 2.247 0 019 8.25 2.247 2.247 0 016.75 6 2.247 2.247 0 019 3.75zM9 14.4a5.4 5.4 0 01-4.5-2.415c.022-1.492 3-2.31 4.5-2.31 1.492 0 4.477.817 4.5 2.31A5.4 5.4 0 019 14.4z" fill="#fff"/></svg></svg>