<svg width="375" height="285" fill="none" xmlns="http://www.w3.org/2000/svg"><path d="M-284.361 91.08c52.753-4.414 89.984-18.454 114.383-30.61 24.673-12.291 42.442-25.776 74.913-33.025 35.813-8.055 59.213-4.447 68.468-2.417 12.832 2.82 12.035 4.737 33.027 11.277 40.324 12.566 47.984 6.976 66.052 15.305 29.957 13.807 21.024 34.758 52.358 57.997 22.692 16.836 60.261 30.231 94.245 20.944 32.004-8.748 35.604-30.715 69.275-33.832 13.83-1.28 25.333 1.563 48.331 7.25 29.473 7.249 49.265 16.191 57.191 19.332 23.481 9.32 61.38 15.184 123.244-3.222" stroke="#FF6C2D" stroke-width=".4" stroke-miterlimit="10"/><path d="M-284.716 98.185c51.03-3.81 89.179-16.521 115.793-29.12 21.62-10.374 38.109-21.748 60.832-29.876 4.97-1.772 10.206-3.488 15.845-4.97 35.531-9.328 58.843-7.79 68.573-6.847 13.05 1.257 13.05 2.69 33.623 9.046 14.499 4.47 24.826 7.024 32.824 8.7 13.597 2.843 20.404 3.036 31.133 8.506a58.409 58.409 0 0111.197 7.386c15.893 13.332 15.216 30.232 41.581 48.146 22.949 15.595 60.268 27.388 93.673 18.165a81.528 81.528 0 007.814-2.594c25.824-10.061 31.624-27.758 61.219-30.537a70.396 70.396 0 019.384-.266c10.52.37 21.395 2.996 38.616 7.25 28.532 7.088 48.017 15.86 56.757 19.332a122.965 122.965 0 0019.735 5.912c23.296 4.962 56.225 5.478 102.55-7.185" stroke="#FF6C2D" stroke-width=".4" stroke-miterlimit="10"/><path d="M-285.07 105.918c49.297-3.222 88.405-14.5 117.202-27.694 22.869-10.471 40.123-22.433 62.427-30.972 5.091-1.957 10.368-3.939 16.03-5.638 35.25-10.609 58.44-11.89 68.686-11.278 13.203.806 14.08.653 34.203 6.815 14.088 4.326 24.374 7.25 32.22 9.304 13.219 3.44 19.574 4.132 29.61 9.811a65.65 65.65 0 0110.73 7.66c15.354 13.243 16.111 29.128 42.507 45.432 23.207 14.346 60.277 24.536 93.102 15.377 2.779-.806 5.348-1.611 7.757-2.578 26.638-10.246 32.535-27.122 61.042-29.804a70.458 70.458 0 019.312-.298c10.697.314 21.555 2.868 38.358 7.08 27.597 6.896 46.76 15.523 56.322 19.244a127.44 127.44 0 0019.558 5.929c23.086 5.075 55.862 6.146 101.728-5.26" stroke="#FF6C2D" stroke-width=".4" stroke-miterlimit="10"/><path d="M-285.416 114.174c47.566-2.601 87.608-12.55 118.612-26.227 24.085-10.633 42.128-23.143 63.998-32.1 5.22-2.143 10.544-4.382 16.215-6.307 34.968-11.873 57.997-14.362 68.8-15.716 13.363-1.667 15.11-1.385 34.79 4.584 13.693 4.164 23.94 7.467 31.672 9.9 12.832 4.027 18.753 5.235 28.097 11.115a76.797 76.797 0 0110.198 7.935c14.813 13.146 17.052 28.008 43.417 42.692 23.497 13.098 60.285 21.693 92.529 12.59 2.755-.805 5.309-1.611 7.701-2.553 27.436-10.472 33.453-26.493 60.857-29.16a70.621 70.621 0 019.247-.33c10.874.25 21.749 2.747 38.109 6.88 26.646 6.693 45.503 15.167 55.878 19.203a136.217 136.217 0 0019.405 5.936c22.877 5.188 55.5 6.823 100.899-3.335" stroke="#FF6C2D" stroke-width=".4" stroke-miterlimit="10"/><path d="M-285.771 122.447c45.842-1.997 86.803-10.6 120.022-24.77 25.31-10.801 44.134-23.867 65.585-33.227 5.34-2.328 10.706-4.833 16.4-6.976 34.686-13.113 57.506-17.576 68.912-20.138 13.477-3.028 16.11-3.423 35.379 2.352 13.33 4.028 23.488 7.685 31.093 10.472 12.445 4.608 17.922 6.348 26.581 12.421a94.777 94.777 0 019.667 8.2c14.281 13.034 18.003 26.88 44.343 39.994 23.787 11.841 60.285 18.849 91.958 9.811 2.722-.805 5.26-1.611 7.644-2.537 28.242-10.689 34.363-25.776 60.672-28.475a75.189 75.189 0 019.182-.362c11.036.193 21.878 2.626 37.86 6.677 25.712 6.509 44.255 14.838 55.443 19.164a142.95 142.95 0 0019.244 5.952c22.675 5.309 55.146 7.492 100.085-1.401" stroke="#FF6C2D" stroke-width=".4" stroke-miterlimit="10"/><path d="M-286.108 127.78c44.118-1.394 86.004-8.644 121.431-23.304 26.526-10.98 46.14-24.624 67.172-34.355 5.453-2.521 10.874-5.26 16.585-7.644 34.388-14.355 57.023-20.75 69-24.577 13.598-4.333 17.166-5.47 35.967.121a276.271 276.271 0 0130.521 11.1c12.083 5.18 17.101 7.467 25.052 13.694 3.471 2.73 6.226 5.638 9.206 8.466 13.751 12.888 18.962 25.776 45.254 37.279 24.101 10.576 60.293 16.006 91.386 7.032 2.698-.805 5.22-1.611 7.588-2.521 29.055-10.883 35.281-25.172 60.494-27.79a76.908 76.908 0 019.11-.387c11.213.153 22.039 2.497 37.586 6.444 24.769 6.3 43.006 14.499 55 19.115a150.407 150.407 0 0019.099 5.961c22.466 5.429 54.775 8.176 99.256.531" stroke="#FF6C2D" stroke-width=".4" stroke-miterlimit="10"/><path d="M-286.479 131.582c42.386-.806 85.199-6.71 122.841-21.846 27.741-11.156 48.129-25.398 68.758-35.443 5.575-2.722 11.036-5.703 16.771-8.313 34.13-15.57 56.588-23.891 69.13-28.998 13.693-5.598 18.188-7.516 36.554-2.119a188.631 188.631 0 0129.933 11.648c11.688 5.735 16.28 8.587 23.537 15.031 3.222 2.843 5.76 5.872 8.715 8.732 13.227 12.808 19.937 24.584 46.165 34.565 24.431 9.295 60.308 13.162 90.821 4.245 2.667-.806 5.164-1.611 7.532-2.506 29.868-11.051 36.224-24.52 60.309-27.04a76.98 76.98 0 019.046-.42c11.374.097 22.2 2.369 37.319 6.267 23.827 6.114 41.75 14.161 54.566 19.083a160.6 160.6 0 0018.938 5.969c22.264 5.55 54.42 8.861 98.441 2.457" stroke="#FF6C2D" stroke-width=".4" stroke-miterlimit="10"/><path d="M-286.827 135.44c40.654-.185 84.378-4.777 124.251-20.387 28.95-11.342 50.103-26.196 70.329-36.603 5.695-2.94 11.213-6.162 16.964-8.982C-41.427 52.698-19.13 42.484-6.049 36.04c13.88-6.83 19.22-9.553 37.142-4.35a142.458 142.458 0 0129.362 12.309c11.277 6.275 15.45 9.723 22.022 16.328 2.948 2.964 5.284 6.09 8.209 9.006 12.71 12.67 20.943 23.4 47.09 31.842 24.769 7.998 60.309 10.31 90.218 1.466 2.642-.806 5.123-1.611 7.475-2.498 30.682-11.277 37.11-23.9 60.131-26.404a80.594 80.594 0 018.974-.451c11.551 0 22.361 2.239 37.054 6.073 22.892 5.905 40.493 13.823 54.13 19.026a170.758 170.758 0 0018.785 5.993c22.055 5.639 54.058 9.514 97.612 4.382" stroke="#FF6C2D" stroke-width=".4" stroke-miterlimit="10"/><path d="M-287.182 139.315c38.931.418 83.573-2.844 125.661-18.93 30.166-11.527 52.084-27 71.916-37.722 5.8-3.134 11.382-6.573 17.141-9.666 33.59-17.972 55.742-30.078 69.355-37.86 14.048-8.055 20.243-11.6 37.73-6.589a115.348 115.348 0 0128.782 12.888c10.93 6.823 14.612 10.867 20.5 17.633 2.682 3.093 4.833 6.3 7.717 9.272 12.195 12.541 21.934 22.2 48 29.127 25.124 6.678 60.317 7.467 89.67-1.321 2.618-.806 5.083-1.611 7.419-2.473 31.504-11.446 38.02-23.263 59.955-25.72a84.494 84.494 0 018.909-.483c11.72-.073 22.554 2.118 36.804 5.872 21.942 5.71 39.236 13.492 53.687 18.986a183.122 183.122 0 0018.624 6.033c21.853 5.784 53.703 10.19 96.798 6.315" stroke="#FF6C2D" stroke-width=".4" stroke-miterlimit="10"/><path d="M-287.535 143.173c37.207.999 82.783-.942 127.086-17.496 31.415-11.72 54.05-27.822 73.503-38.842 5.913-3.35 11.551-7.008 17.327-10.326C-36.303 57.362-14.29 43.369-.152 34.21c14.25-9.24 21.274-13.637 38.319-8.82A96.798 96.798 0 0166.36 38.907c10.552 7.347 13.774 12.019 18.978 18.938 2.416 3.222 4.358 6.5 7.25 9.537 11.695 12.405 22.956 20.944 48.926 26.405 25.479 5.34 60.317 4.624 89.098-4.1a248.69 248.69 0 007.363-2.417c32.317-11.623 38.93-22.635 59.761-25.027a80.43 80.43 0 018.861-.516c11.889-.08 22.683 1.99 36.546 5.64 20.999 5.517 37.98 13.161 53.252 18.945a196.578 196.578 0 0018.471 6.017c21.644 5.896 53.341 10.866 95.969 8.24" stroke="#FF6C2D" stroke-width=".4" stroke-miterlimit="10"/><path d="M-287.89 146.919c35.443 1.611 81.945.999 128.48-16.014 32.591-11.913 56.007-28.66 75.09-39.97 6.017-3.568 11.72-7.434 17.512-10.995C-33.734 59.617-11.84 43.748 2.764 33.22c14.451-10.47 22.297-15.675 38.907-11.05A83.66 83.66 0 0169.3 36.28c10.19 7.878 12.888 13.187 17.455 20.243 2.151 3.35 3.9 6.71 6.726 9.803 11.197 12.252 23.973 19.719 49.838 23.682 25.865 3.963 60.325 1.772 88.526-6.887a252.324 252.324 0 007.306-2.417C272.29 68.905 279 58.7 298.759 56.363c2.912-.34 5.84-.52 8.772-.54 12.083-.153 22.844 1.86 36.248 5.461 20.065 5.317 36.724 12.832 52.818 18.898a216.541 216.541 0 0018.317 6.033c21.435 6.01 52.979 11.535 95.148 10.174" stroke="#FF6C2D" stroke-width=".4" stroke-miterlimit="10"/><path d="M-288.237 150.616c33.743 2.231 81.123 2.916 129.889-14.548 33.832-12.082 57.949-29.514 76.66-41.08 6.13-3.795 11.898-7.863 17.722-11.665C-31.149 61.816-9.368 44.095 5.695 32.15c14.685-11.616 23.36-17.721 39.47-13.283 10.698 2.948 20.412 9.046 27.058 14.709 9.835 8.393 12.082 14.354 15.94 21.547 1.87 3.48 3.432 6.92 6.22 10.077 10.705 12.083 24.97 18.438 50.747 20.944 26.203 2.57 60.333-1.072 87.954-9.667a273.507 273.507 0 007.25-2.416c33.952-11.986 40.751-21.387 59.398-23.658a81.908 81.908 0 018.708-.572c12.236-.234 22.997 1.732 36.022 5.26 19.123 5.123 35.443 12.501 52.359 18.857 5.469 2.054 11.487 4.124 18.156 6.041 21.234 6.13 52.625 12.212 94.326 12.083" stroke="#FF6C2D" stroke-width=".4" stroke-miterlimit="10"/><path d="M-288.589 154.265c32.019 2.844 80.278 4.737 131.299-13.089 34.984-12.373 59.89-30.368 78.248-42.217 6.226-4.028 12.082-8.29 17.89-12.333 32.591-22.643 54.268-42.281 69.79-55.58C23.564 18.254 32.981 11.294 48.721 15.53c10.318 2.803 19.984 9.223 26.477 15.305 9.48 8.91 11.188 15.514 14.418 22.852 1.612 3.61 2.973 7.113 5.728 10.335 10.214 11.954 25.994 17.142 51.673 18.261 26.582 1.152 60.342-3.915 87.383-12.453a241.24 241.24 0 007.193-2.416c34.782-12.148 41.669-20.759 59.221-22.966a81.302 81.302 0 018.635-.604c12.405-.298 23.167 1.611 35.773 5.059 18.173 4.921 34.195 12.203 51.94 18.817a261.855 261.855 0 0018.003 6.05c21.024 6.25 52.262 12.887 93.504 14.031" stroke="#FF6C2D" stroke-width=".4" stroke-miterlimit="10"/><path d="M-288.944 157.858c30.287 3.439 79.472 6.661 132.708-11.632 36.2-12.558 61.84-31.246 79.835-43.329 6.323-4.245 12.244-8.715 18.076-13 32.357-23.796 53.97-45.319 69.894-60.02 15.184-13.975 25.374-21.821 40.638-17.77 9.949 2.65 19.574 9.401 25.898 15.918 9.142 9.424 10.31 16.69 12.888 24.165 1.305 3.746 2.521 7.322 5.228 10.6 9.787 11.793 27.073 16.627 52.648 15.54 26.888-1.145 60.349-6.76 86.819-15.233 2.481-.8 4.86-1.606 7.136-2.417 35.62-12.26 42.58-20.138 59.037-22.28a82.889 82.889 0 018.57-.629c12.574-.354 23.36 1.483 35.507 4.834 17.198 4.768 32.938 11.961 51.497 18.816a298.749 298.749 0 0017.842 6.066c20.823 6.372 51.908 13.565 92.683 15.965" stroke="#FF6C2D" stroke-width=".4" stroke-miterlimit="10"/><path d="M-289.331 161.41c28.564 4.028 78.667 8.595 134.118-10.174 37.416-12.743 63.74-32.116 81.414-44.472 6.444-4.479 12.429-9.135 18.26-13.694C-23.398 68.1-1.906 44.74 14.478 28.63 29.951 13.485 40.93 4.802 55.767 8.652c9.57 2.497 19.156 9.57 25.318 16.521 8.804 9.924 9.408 17.85 11.382 25.454 1.015 3.883 2.07 7.524 4.736 10.875 9.264 11.632 27.984 14.5 53.511 12.824 27.242-1.764 60.349-9.602 86.238-18.012 2.417-.805 4.833-1.61 7.081-2.416 36.433-12.445 43.497-19.526 58.859-21.596a82.066 82.066 0 018.498-.66c12.743-.42 23.489 1.36 35.249 4.647 16.296 4.535 31.689 11.551 51.062 18.737 5.405 2.013 11.277 4.027 17.721 6.081 20.613 6.444 51.553 14.234 91.829 17.89" stroke="#FF6C2D" stroke-width=".4" stroke-miterlimit="10"/><path d="M-289.645 164.922c26.832 4.648 77.845 10.528 135.528-8.708 38.665-12.928 65.65-33.026 82.968-45.6 6.509-4.72 12.615-9.553 18.447-14.338 31.97-26.034 53.325-51.392 70.08-68.888C33.1 11.028 44.805 1.508 59.264 5.18c9.191 2.344 18.753 9.739 24.746 17.117 8.474 10.472 8.498 19.01 9.867 26.76.701 4.027 1.611 7.725 4.23 11.14 8.795 11.47 28.998 13.114 54.428 10.11 27.573-3.223 60.365-12.446 85.666-20.8 2.417-.805 4.777-1.61 7.024-2.351 37.255-12.63 44.4-18.938 58.674-20.944a81.827 81.827 0 018.49-.644 108.12 108.12 0 0134.96 4.43c15.353 4.342 30.432 11.221 50.626 18.696a466.73 466.73 0 0017.536 6.09 489.813 489.813 0 0091.007 19.824" stroke="#FF6C2D" stroke-width=".4" stroke-miterlimit="10"/><path d="M-290 168.41c25.108 5.252 77.039 12.461 136.938-7.25 39.848-13.114 67.55-33.888 84.579-46.72C7.098 57.434 31.022-6.234 62.815 1.668c8.813 2.191 18.35 9.908 24.166 17.722 12.421 16.674 4.591 29.32 12.083 39.47 18.365 24.89 100.979-2.908 147.409-18.527 45.27-15.232 46.945-20.138 66.858-20.943 34.758-1.426 52.825 12.533 102.3 28.998a557.911 557.911 0 0090.218 21.749" stroke="#FF6C2D" stroke-width=".4" stroke-miterlimit="10"/><path d="M-290 170.714c25.776 5.743 76.097 12.324 133.361-6.541 39.527-13.058 66.052-34.033 84.33-47.526C.701 62.815 23.473 4.512 55.863 9.715c12.655 2.03 25.503 6.098 33.985 12.333 16.666 12.26 10.471 23.223 20.137 33.026 21.161 21.475 98.217-2.634 142.424-16.964 43.062-14.008 44.802-17.971 65.85-17.166 34.976 1.337 52.222 13.694 98.829 29.498a489.204 489.204 0 0089.428 21.193" stroke="#FF6C2D" stroke-width=".4" stroke-miterlimit="10"/><path d="M-290 173.114a242.453 242.453 0 00129.785-5.84c39.204-12.993 64.505-34.186 84.08-48.331C-5.79 68.147 16.232 14.339 48.92 17.851c16.586 1.788 32.18 2.24 43.796 6.951 19.929 8.056 16.046 16.997 28.193 26.583 23.207 18.293 95.454-2.369 137.445-15.41 40.783-12.784 42.596-15.885 64.844-13.388 35.105 3.931 51.61 14.935 95.349 30.006a434.498 434.498 0 0088.607 20.637" stroke="#FF6C2D" stroke-width=".4" stroke-miterlimit="10"/><path d="M-290 177.383a231.604 231.604 0 00126.216-5.139c38.874-12.936 62.959-34.347 83.822-49.136 67.534-47.864 89.187-91.49 121.93-95.252 20.485-2.353 38.601-1.386 53.624 1.562 22.699 4.447 21.378 10.786 36.248 20.138 24.617 15.482 92.699-2.014 132.451-13.847 38.568-11.478 40.364-13.87 63.837-9.618 35.217 6.38 50.997 16.167 91.885 30.513a388.445 388.445 0 0087.801 20.09" stroke="#FF6C2D" stroke-width=".4" stroke-miterlimit="10"/><path d="M-290 183.884a220.861 220.861 0 00122.64-4.463c38.552-12.888 61.412-34.516 83.572-49.942 64.675-45.02 86.101-84.482 118.813-89.412 24.303-3.657 45.762-9.247 63.435-3.826 24.318 7.459 25.228 7.974 44.303 13.694 22.949 17.407 89.944-1.684 127.473-12.284 36.328-10.23 38.117-11.922 62.83-5.84 35.305 8.691 50.369 17.423 88.405 31.012a350.057 350.057 0 0086.996 19.534" stroke="#FF6C2D" stroke-width=".4" stroke-miterlimit="10"/><path d="M-290 190.537a210.578 210.578 0 00119.079-3.721c38.23-12.824 59.858-34.694 83.323-50.748 61.75-42.257 82.936-77.917 115.64-83.572 28.192-4.865 51.65-12.582 73.301-9.207 27.919 4.35 30.392 2.642 52.359 7.25 24.077 15.49 87.165-1.426 122.438-10.73 34.089-8.981 35.878-10.053 61.823-2.062 35.443 10.89 49.741 18.696 84.934 31.512a317.471 317.471 0 0086.19 18.978" stroke="#FF6C2D" stroke-width=".4" stroke-miterlimit="10"/><path d="M-290 197.32a200.477 200.477 0 00115.487-3.021c37.907-12.767 58.287-34.879 83.072-51.553 58.803-39.559 79.746-71.61 112.571-77.732 32.003-5.969 57.884-10.866 83.065-14.596 31.093-4.608 35.555-2.699 60.413.806 25.245 13.62 84.418-1.128 117.509-9.167 31.85-7.733 33.638-8.233 60.816 1.715 35.507 13.002 49.097 20.002 81.422 32.02a289.823 289.823 0 0085.384 18.422" stroke="#FF6C2D" stroke-width=".4" stroke-miterlimit="10"/><path d="M-290 204.191c29.989 8.675 70.483 11.599 111.918-2.312 37.61-12.63 56.708-35.08 82.815-52.358 55.798-36.925 76.524-65.489 109.445-71.893C50.072 70.653 78.62 63.83 107.07 57.643c34.074-7.418 41.485-12.598 68.469-5.638 27.96 7.21 81.647-.806 112.515-7.604 29.61-6.493 31.415-6.444 59.809 5.485 35.684 15.04 48.46 21.33 77.99 32.527 18.358 6.96 46.051 16.062 84.579 17.866" stroke="#FF6C2D" stroke-width=".4" stroke-miterlimit="10"/><path d="M-290 211.183c30.69 9.151 69.54 11.462 108.342-1.611 37.287-12.566 55.121-35.306 82.565-53.164C-46.34 122.069-25.912 96.912 7.235 90.356c39.792-7.878 71.063-16.683 102.703-25.374 37.142-10.206 46.414-17.971 76.524-12.083 28.7 5.639 78.876-.548 107.536-6.041 27.388-5.252 29.256-4.769 58.803 9.263 35.861 17.02 47.799 22.683 74.51 33.026 18.092 7.008 45.375 16.111 83.773 17.319" stroke="#FF6C2D" stroke-width=".4" stroke-miterlimit="10"/><path d="M-290 218.255c31.415 9.666 68.598 11.326 104.765-.902 36.965-12.502 53.519-35.539 82.316-53.97 49.684-31.801 69.838-53.582 103.202-60.212 43.732-8.691 77.733-19.542 112.523-30.762 40.276-12.985 51.351-23.159 84.579-18.527 29.482 4.108 76.105-.25 102.55-4.479 25.116-4.028 27.105-3.101 57.796 13.041 36.087 18.97 47.138 24.061 71.038 33.526 17.834 7.064 44.69 16.199 82.968 16.763" stroke="#FF6C2D" stroke-width=".4" stroke-miterlimit="10"/><path d="M-290 225.432c32.084 10.126 67.663 11.181 101.189-.201 36.643-12.445 51.899-35.805 82.066-54.775 46.583-29.305 65.915-51.642 100.085-54.373 48.444-3.874 84.418-22.393 122.333-36.151 43.442-15.756 57.997-36.248 92.635-24.971 28.934 9.449 73.301 0 97.572-2.916 22.86-2.779 24.971-1.466 56.788 16.811 36.337 20.887 46.454 25.479 67.559 34.033 17.568 7.129 44.013 16.272 82.162 16.215" stroke="#FF6C2D" stroke-width=".4" stroke-miterlimit="10"/><path d="M-290 232.843c32.784 10.617 66.721 11.02 97.62.548 36.313-12.389 50.256-36.103 81.808-55.581 43.498-26.848 62.565-45.246 96.96-48.532 52.359-5.018 91.144-25.237 132.161-41.54 46.639-18.527 62.323-40.365 100.689-31.416 30.433 7.105 70.547.306 92.578-1.353 20.613-1.555 22.909.137 55.782 20.59 36.627 22.78 45.778 26.911 64.095 34.532 17.294 7.201 43.329 16.335 81.357 15.659" stroke="#FF6C2D" stroke-width=".4" stroke-miterlimit="10"/><path d="M-290 240.721c33.477 11.108 65.77 10.891 94.044 1.208 35.99-12.332 48.597-36.433 81.558-56.386 40.324-24.415 59.206-38.85 93.843-42.692 56.29-6.243 97.878-28.072 141.972-46.921 49.877-21.322 66.857-44.046 108.744-37.86 31.85 4.705 67.76.564 87.6.202 18.35-.339 20.855 1.724 54.775 24.367 36.933 24.656 45.109 28.378 60.615 35.04 17.02 7.298 42.692 16.4 80.551 15.103" stroke="#FF6C2D" stroke-width=".4" stroke-miterlimit="10"/><path d="M-290 248.736c34.178 11.599 64.828 10.746 90.467 1.917 35.669-12.284 46.914-36.82 81.309-57.192 37.175-22.022 55.822-32.47 90.717-36.852 60.188-7.556 104.637-30.916 151.791-52.31 53.164-24.11 71.578-47.389 116.8-44.303 33.187 2.263 64.981.805 82.614 1.764 16.078.862 18.833 3.278 53.768 28.144 37.287 26.526 44.368 29.909 57.143 35.548 16.731 7.419 41.967 16.473 79.746 14.547" stroke="#FF6C2D" stroke-width=".4" stroke-miterlimit="10"/><path d="M-290 257.46c34.879 12.083 63.861 10.552 86.891 2.618 35.322-12.309 45.189-37.271 81.059-57.997 34.009-19.655 52.43-26.099 87.6-31.013 64.054-8.949 111.402-33.751 161.57-57.699 56.386-26.896 76.677-47.074 124.855-50.747 34.331-2.61 62.193 1.047 77.635 3.326 13.831 2.046 16.835 4.834 52.761 31.915 37.65 28.402 43.643 31.415 53.664 36.047 16.416 7.596 41.291 16.545 78.94 14" stroke="#FF6C2D" stroke-width=".4" stroke-miterlimit="10"/><path d="M-290 266.095c35.572 12.574 62.919 10.415 83.322 3.327 34.992-12.252 43.41-37.811 80.802-58.803 30.835-17.311 49.023-19.735 84.474-25.172 67.913-10.416 118.185-36.595 171.43-63.08 59.68-29.7 81.88-51.553 132.91-57.192 35.442-3.899 59.423 1.233 72.641 4.882 11.591 3.221 14.87 6.363 51.754 35.692 38.053 30.255 42.902 32.97 50.2 36.554 16.046 7.878 40.606 16.602 78.135 13.436" stroke="#FF6C2D" stroke-width=".4" stroke-miterlimit="10"/><path d="M-290 274.738c36.248 13.057 62.025 10.278 79.746 4.027 34.637-12.195 41.581-38.479 80.551-59.608 27.662-14.998 45.609-13.371 81.358-19.332 71.73-11.962 124.967-39.47 181.24-68.469C195.87 98.862 220.044 75.3 273.86 67.72c36.692-5.163 56.684 1.386 67.664 6.444 9.368 4.318 12.888 7.886 50.747 39.471 38.463 32.116 42.129 34.556 46.72 37.053 15.522 8.45 39.921 16.675 77.329 12.889" stroke="#FF6C2D" stroke-width=".4" stroke-miterlimit="10"/></svg>