<svg width="768" height="458" fill="none" xmlns="http://www.w3.org/2000/svg"><path d="M-126.602 253.591c85.262-7.135 145.435-29.827 184.87-49.473 39.877-19.867 68.597-41.66 121.076-53.377 57.883-13.019 95.703-7.187 110.661-3.906 20.74 4.557 19.451 7.655 53.378 18.227 65.173 20.309 77.554 11.274 106.756 24.736 48.417 22.314 33.979 56.176 84.623 93.736 36.674 27.21 97.395 48.86 152.322 33.85 51.724-14.139 57.544-49.642 111.963-54.68 22.354-2.07 40.945 2.526 78.114 11.717 47.636 11.717 79.624 26.168 92.435 31.246 37.954 15.062 99.204 24.54 199.194-5.208" stroke="#fff" stroke-width=".8" stroke-miterlimit="10"/><path d="M-127.175 265.073c82.475-6.158 144.133-26.702 187.148-47.063 34.943-16.769 61.593-35.152 98.319-48.288 8.033-2.864 16.495-5.637 25.608-8.032 57.427-15.076 95.104-12.59 110.831-11.067 21.091 2.031 21.091 4.349 54.341 14.621 23.434 7.225 40.125 11.352 53.052 14.06 21.976 4.596 32.977 4.908 50.319 13.748a94.472 94.472 0 0118.096 11.939c25.686 21.546 24.593 48.86 67.204 77.814 37.091 25.205 97.408 44.265 151.398 29.358a131.875 131.875 0 0012.628-4.192c41.739-16.261 51.112-44.864 98.944-49.355a113.777 113.777 0 0115.167-.43c17.003.599 34.579 4.843 62.413 11.717 46.113 11.457 77.606 25.635 91.732 31.246a198.82 198.82 0 0031.895 9.556c37.65 8.02 90.87 8.853 165.75-11.613" stroke="#fff" stroke-width=".8" stroke-miterlimit="10"/><path d="M-127.747 277.571c79.676-5.207 142.883-23.434 189.426-44.759 36.96-16.924 64.847-36.258 100.897-50.058 8.228-3.163 16.755-6.366 25.908-9.113 56.971-17.146 94.452-19.216 111.012-18.227 21.338 1.302 22.758 1.055 55.279 11.014 22.77 6.992 39.395 11.717 52.076 15.037 21.364 5.559 31.636 6.679 47.858 15.857a106.13 106.13 0 0117.341 12.382c24.814 21.403 26.038 47.076 68.701 73.427 37.508 23.186 97.421 39.655 150.473 24.853 4.492-1.302 8.645-2.604 12.537-4.166 43.054-16.56 52.584-43.835 98.658-48.171a113.89 113.89 0 0115.05-.481c17.289.508 34.839 4.635 61.996 11.443 44.603 11.145 75.576 25.088 91.029 31.103a206.107 206.107 0 0031.606 9.582c37.32 8.202 90.29 9.933 164.42-8.502" stroke="#fff" stroke-width=".8" stroke-miterlimit="10"/><path d="M-128.307 290.916c76.877-4.205 141.595-20.284 191.705-42.39 38.926-17.185 68.089-37.403 103.435-51.88 8.437-3.464 17.042-7.083 26.208-10.194 56.515-19.19 93.736-23.213 111.195-25.4 21.598-2.695 24.423-2.24 56.229 7.407 22.132 6.731 38.692 12.069 51.19 16.001 20.739 6.509 30.308 8.462 45.41 17.966a124.088 124.088 0 0116.482 12.824c23.942 21.247 27.561 45.267 70.173 69 37.976 21.169 97.434 35.06 149.548 20.349 4.453-1.302 8.58-2.604 12.447-4.127 44.342-16.925 54.067-42.82 98.358-47.129a114.22 114.22 0 0114.946-.534c17.575.404 35.151 4.44 61.592 11.119 43.067 10.818 73.545 24.514 90.313 31.037a219.992 219.992 0 0031.366 9.595c36.97 8.384 89.7 11.027 163.07-5.39" stroke="#fff" stroke-width=".8" stroke-miterlimit="10"/><path d="M-128.88 304.286c74.091-3.228 140.292-17.133 193.983-40.033 40.905-17.458 71.331-38.575 106-53.703 8.632-3.763 17.302-7.812 26.507-11.275 56.06-21.195 92.942-28.407 111.377-32.547 21.781-4.895 26.038-5.533 57.179 3.801 21.547 6.51 37.964 12.421 50.254 16.925 20.114 7.447 28.967 10.259 42.962 20.075a153.172 153.172 0 0115.623 13.254c23.083 21.064 29.097 43.444 71.669 64.639 38.445 19.138 97.434 30.464 148.625 15.857 4.4-1.302 8.501-2.604 12.355-4.101 45.644-17.276 55.539-41.661 98.059-46.022 4.93-.498 9.887-.693 14.842-.586 17.836.313 35.359 4.244 61.189 10.793 41.556 10.519 71.526 23.981 89.609 30.972a230.718 230.718 0 0031.107 9.621c36.64 8.58 89.12 12.108 161.76-2.265" stroke="#fff" stroke-width=".8" stroke-miterlimit="10"/><path d="M-129.427 312.905c71.305-2.252 139.004-13.969 196.261-37.664 42.872-17.745 74.573-39.799 108.565-55.526 8.814-4.075 17.576-8.501 26.806-12.355 55.578-23.2 92.162-33.537 111.521-39.721 21.976-7.004 27.743-8.84 58.13.196a446.466 446.466 0 0149.328 17.94c19.529 8.371 27.64 12.068 40.489 22.132 5.612 4.413 10.064 9.113 14.881 13.683 22.223 20.83 30.647 41.661 73.141 60.252 38.952 17.094 97.447 25.869 147.7 11.365 4.361-1.302 8.436-2.603 12.264-4.075 46.959-17.588 57.023-40.684 97.772-44.915 4.892-.499 9.808-.708 14.725-.625 18.122.247 35.619 4.036 60.746 10.415 40.033 10.181 69.508 23.434 88.894 30.894a243.093 243.093 0 0030.864 9.634c36.31 8.775 88.53 13.215 160.42.86" stroke="#fff" stroke-width=".8" stroke-miterlimit="10"/><path d="M-130.025 319.05c68.505-1.302 137.701-10.845 198.539-35.308 44.837-18.031 77.788-41.048 111.13-57.283 9.009-4.4 17.836-9.218 27.105-13.436 55.162-25.165 91.459-38.614 111.729-46.868 22.132-9.048 29.397-12.147 59.08-3.424a304.881 304.881 0 0148.379 18.825c18.89 9.27 26.311 13.879 38.041 24.294 5.208 4.596 9.309 9.491 14.087 14.112 21.377 20.701 32.222 39.734 74.611 55.865 39.487 15.024 97.473 21.273 146.789 6.861 4.31-1.302 8.345-2.604 12.173-4.049 48.274-17.862 58.546-39.63 97.473-43.705 4.856-.512 9.738-.738 14.62-.677 18.383.157 35.881 3.828 60.317 10.129 38.51 9.881 67.478 22.887 88.191 30.842a259.368 259.368 0 0030.611 9.647c35.98 8.97 87.95 14.321 159.1 3.971" stroke="#fff" stroke-width=".8" stroke-miterlimit="10"/><path d="M-130.586 325.286c65.707-.299 136.374-7.72 200.818-32.951 46.79-18.331 80.978-42.338 113.668-59.158 9.205-4.752 18.123-9.96 27.418-14.516 54.719-27.106 90.755-43.614 111.898-54.029 22.432-11.04 31.064-15.441 60.031-7.03a230.208 230.208 0 0147.454 19.893c18.226 10.141 24.97 15.714 35.594 26.389 4.765 4.791 8.54 9.842 13.266 14.555 20.544 20.479 33.849 37.82 76.109 51.464 40.033 12.928 97.473 16.665 145.812 2.37 4.271-1.302 8.28-2.604 12.082-4.036 49.589-18.227 59.978-38.627 97.187-42.676 4.817-.513 9.659-.756 14.503-.729 18.669 0 36.14 3.619 59.887 9.816 37 9.543 65.446 22.341 87.487 30.751a275.787 275.787 0 0030.362 9.686c35.64 9.113 87.37 15.375 157.76 7.082" stroke="#fff" stroke-width=".8" stroke-miterlimit="10"/><path d="M-131.158 331.548c62.92.677 135.072-4.596 203.096-30.594 48.756-18.631 84.18-43.64 116.233-60.968 9.374-5.065 18.396-10.624 27.704-15.623 54.29-29.045 90.092-48.613 112.094-61.189 22.705-13.019 32.716-18.748 60.981-10.65a186.395 186.395 0 0146.516 20.831c17.667 11.027 23.617 17.562 33.134 28.498 4.335 4.999 7.811 10.181 12.472 14.985 19.71 20.27 35.45 35.88 77.58 47.077 40.606 10.792 97.486 12.068 144.927-2.136 4.231-1.301 8.215-2.603 11.99-3.996 50.918-18.5 61.45-37.599 96.901-41.57 4.782-.514 9.589-.775 14.399-.781 18.942-.117 36.453 3.424 59.483 9.491 35.464 9.23 63.416 21.807 86.772 30.685 9.852 3.785 19.9 7.04 30.096 9.752 35.32 9.347 86.8 16.469 156.45 10.207" stroke="#fff" stroke-width=".8" stroke-miterlimit="10"/><path d="M-131.731 337.784c60.134 1.615 133.796-1.523 205.4-28.277 50.774-18.943 87.357-44.967 118.798-62.777 9.556-5.416 18.669-11.327 28.004-16.691 53.846-30.946 89.427-53.56 112.275-68.362 23.031-14.933 34.383-22.042 61.932-14.256a156.438 156.438 0 0145.566 21.846c17.055 11.873 22.262 19.424 30.673 30.607 3.905 5.208 7.043 10.507 11.717 15.415 18.903 20.049 37.104 33.849 79.077 42.676 41.179 8.632 97.486 7.473 144.003-6.627a404.812 404.812 0 0011.899-3.905c52.232-18.787 62.921-36.584 96.588-40.45 4.754-.541 9.535-.82 14.321-.834 19.216-.13 36.661 3.216 59.067 9.114 33.94 8.918 61.384 21.273 86.068 30.62 8.918 3.385 18.799 6.731 29.853 9.725 34.98 9.53 86.21 17.563 155.11 13.319" stroke="#fff" stroke-width=".8" stroke-miterlimit="10"/><path d="M-132.304 343.838c57.284 2.604 132.442 1.615 207.653-25.881 52.675-19.256 90.521-46.322 121.363-64.601 9.725-5.767 18.942-12.016 28.303-17.771 53.456-32.846 88.841-58.494 112.445-75.51 23.356-16.924 36.036-25.335 62.881-17.862a135.213 135.213 0 0144.655 22.81c16.469 12.732 20.831 21.312 28.213 32.716 3.476 5.416 6.301 10.845 10.87 15.844 18.097 19.802 38.745 31.871 80.549 38.276 41.804 6.405 97.499 2.864 143.078-11.131a406.194 406.194 0 0011.808-3.906c53.561-19.073 64.405-35.568 96.341-39.343 4.706-.55 9.439-.841 14.177-.872 19.529-.248 36.922 3.007 58.586 8.826 32.43 8.593 59.353 20.74 85.365 30.543 8.879 3.359 18.682 6.692 29.607 9.751 34.64 9.712 85.62 18.643 153.78 16.443" stroke="#fff" stroke-width=".8" stroke-miterlimit="10"/><path d="M-132.864 349.814c54.536 3.606 131.114 4.713 209.93-23.513 54.68-19.528 93.659-47.701 123.902-66.396 9.908-6.132 19.229-12.707 28.642-18.852 53.039-34.76 88.242-63.402 112.588-82.709 23.734-18.774 37.755-28.642 63.793-21.469 17.289 4.765 32.99 14.621 43.731 23.773 15.896 13.566 19.528 23.2 25.764 34.826 3.021 5.624 5.546 11.183 10.051 16.287 17.302 19.528 40.359 29.8 82.019 33.849 42.351 4.153 97.512-1.732 142.154-15.623a440.331 440.331 0 0011.717-3.906c54.875-19.372 65.863-34.565 96.002-38.236 4.672-.558 9.37-.867 14.074-.925 19.776-.377 37.169 2.799 58.221 8.502 30.907 8.28 57.283 20.205 84.623 30.477 8.84 3.32 18.565 6.666 29.343 9.764 34.32 9.908 85.05 19.737 152.45 19.529" stroke="#fff" stroke-width=".8" stroke-miterlimit="10"/><path d="M-133.437 355.711c51.75 4.596 129.748 7.656 212.21-21.155 56.541-19.998 96.796-49.082 126.466-68.233 10.064-6.509 19.528-13.396 28.915-19.932 52.675-36.596 87.709-68.337 112.796-89.831 24.125-20.674 39.344-31.922 64.783-25.074 16.677 4.53 32.3 14.906 42.793 24.736 15.323 14.399 18.083 25.074 23.304 36.934 2.604 5.833 4.804 11.496 9.257 16.704 16.508 19.32 42.012 27.704 83.516 29.514 42.963 1.862 97.525-6.327 141.23-20.127a389.923 389.923 0 0011.626-3.906c56.216-19.633 67.347-33.55 95.715-37.117 4.632-.573 9.291-.899 13.957-.977 20.049-.481 37.442 2.604 57.817 8.176 29.371 7.955 55.265 19.724 83.946 30.413 8.801 3.306 18.435 6.626 29.096 9.777 33.98 10.103 84.47 20.83 151.13 22.679" stroke="#fff" stroke-width=".8" stroke-miterlimit="10"/><path d="M-134.009 361.518c48.951 5.559 128.445 10.767 214.488-18.799 58.507-20.297 99.946-50.501 129.031-70.029 10.22-6.862 19.789-14.087 29.214-21.013 52.297-38.458 87.227-73.245 112.966-97.005 24.541-22.587 41.01-35.268 65.681-28.719 16.078 4.283 31.636 15.193 41.856 25.725 14.776 15.232 16.664 26.975 20.83 39.057 2.109 6.054 4.075 11.834 8.449 17.133 15.818 19.06 43.757 26.871 85.092 25.114 43.458-1.849 97.538-10.923 140.319-24.619a405.293 405.293 0 0011.535-3.906c57.569-19.815 68.818-32.547 95.416-36.01 4.596-.578 9.22-.917 13.852-1.016 20.322-.573 37.755 2.396 57.387 7.811 27.796 7.708 53.235 19.334 83.231 30.413a483.503 483.503 0 0028.832 9.803c33.66 10.298 83.9 21.924 149.8 25.804" stroke="#fff" stroke-width=".8" stroke-miterlimit="10"/><path d="M-134.634 367.259c46.165 6.51 127.143 13.891 216.766-16.443 60.473-20.596 103.019-51.906 131.583-71.878 10.415-7.238 20.088-14.763 29.514-22.132 51.945-40.359 86.68-78.114 113.161-104.152 25.009-24.475 42.754-38.51 66.735-32.287 15.466 4.036 30.959 15.467 40.918 26.702 14.23 16.04 15.207 28.85 18.396 41.14 1.641 6.275 3.346 12.16 7.655 17.576 14.972 18.799 45.228 23.434 86.485 20.726 44.031-2.851 97.538-15.519 139.381-29.11 3.906-1.302 7.812-2.604 11.444-3.906 58.885-20.114 70.303-31.558 95.13-34.904 4.557-.594 9.141-.95 13.735-1.068 20.596-.677 37.963 2.201 56.971 7.512 26.337 7.33 51.216 18.67 82.527 30.283 8.736 3.254 18.227 6.509 28.643 9.829 33.31 10.415 83.32 23.004 148.41 28.915" stroke="#fff" stroke-width=".8" stroke-miterlimit="10"/><path d="M-135.142 372.936c43.367 7.511 125.816 17.015 219.044-14.074 62.492-20.895 106.105-53.378 134.096-73.7 10.519-7.63 20.388-15.441 29.813-23.174 51.673-42.078 86.186-83.061 113.265-111.339 25.413-26.441 44.33-41.83 67.699-35.893 14.855 3.789 30.308 15.74 39.994 27.665 13.696 16.925 13.735 30.725 15.948 43.25 1.133 6.509 2.604 12.485 6.835 18.005 14.217 18.539 46.869 21.195 87.97 16.339 44.563-5.208 97.564-20.115 138.456-33.615 3.906-1.302 7.721-2.604 11.353-3.802 60.213-20.414 71.76-30.608 94.83-33.849a132.33 132.33 0 0113.722-1.042 174.737 174.737 0 0156.502 7.161c24.814 7.017 49.186 18.135 81.825 30.217a755.89 755.89 0 0028.34 9.842 791.623 791.623 0 00147.09 32.04" stroke="#fff" stroke-width=".8" stroke-miterlimit="10"/><path d="M-135.715 378.573c40.58 8.488 124.514 20.14 221.323-11.717 64.404-21.195 109.177-54.771 136.699-75.51C344.464 199.21 383.13 96.308 434.516 109.08c14.243 3.541 29.657 16.013 39.057 28.642 20.075 26.949 7.421 47.389 19.528 63.793 29.684 40.228 163.206-4.7 238.247-29.944 73.167-24.619 75.875-32.547 108.058-33.849 56.177-2.305 85.378 20.257 165.344 46.868a901.467 901.467 0 00145.81 35.151" stroke="#fff" stroke-width=".8" stroke-miterlimit="10"/><path d="M-135.715 382.296c41.66 9.283 122.99 19.919 215.542-10.571 63.884-21.104 106.756-55.005 136.296-76.812 118.004-87.006 154.808-181.237 207.158-172.827 20.452 3.281 41.218 9.855 54.927 19.932 26.936 19.815 16.924 37.534 32.547 53.378 34.201 34.708 158.74-4.258 230.188-27.418 69.6-22.64 72.412-29.046 106.43-27.744 56.529 2.161 84.402 22.133 159.727 47.676a790.718 790.718 0 00144.54 34.253" stroke="#fff" stroke-width=".8" stroke-miterlimit="10"/><path d="M-135.715 386.176a391.868 391.868 0 00209.762-9.439c63.363-20.999 104.256-55.252 135.892-78.114 113.694-82.097 149.288-169.064 202.119-163.388 26.806 2.89 52.011 3.619 70.784 11.235 32.209 13.019 25.934 27.47 45.567 42.963 37.507 29.566 154.275-3.828 222.142-24.905 65.915-20.661 68.845-25.674 104.803-21.638 56.737 6.353 83.413 24.137 154.106 48.496a702.388 702.388 0 00143.21 33.355" stroke="#fff" stroke-width=".8" stroke-miterlimit="10"/><path d="M-135.715 393.076a374.342 374.342 0 00203.994-8.306c62.83-20.909 101.757-55.513 135.476-79.416 109.151-77.359 144.146-147.869 197.068-153.949 33.107-3.802 62.387-2.24 86.667 2.525 36.688 7.187 34.552 17.433 58.586 32.548 39.785 25.022 149.822-3.255 214.07-22.38 62.335-18.552 65.238-22.418 103.176-15.544 56.919 10.311 82.423 26.129 148.508 49.315a627.711 627.711 0 00141.91 32.47" stroke="#fff" stroke-width=".8" stroke-miterlimit="10"/><path d="M-135.715 403.582a356.967 356.967 0 00198.214-7.212c62.309-20.831 99.257-55.787 135.072-80.718C302.1 242.889 336.73 179.109 389.6 171.141c39.279-5.91 73.961-14.945 102.525-6.184 39.304 12.056 40.775 12.889 71.604 22.133 37.091 28.134 145.37-2.721 206.025-19.854 58.716-16.534 61.606-19.268 101.548-9.439 57.062 14.047 81.408 28.16 142.888 50.123a565.724 565.724 0 00140.6 31.571" stroke="#fff" stroke-width=".8" stroke-miterlimit="10"/><path d="M-135.715 414.336a340.354 340.354 0 00192.46-6.015c61.788-20.726 96.744-56.073 134.668-82.019 99.803-68.298 134.043-125.933 186.9-135.072 45.566-7.864 83.478-20.336 118.473-14.881 45.123 7.03 49.12 4.27 84.623 11.717 38.914 25.036 140.878-2.304 197.888-17.341 55.097-14.516 57.987-16.248 99.921-3.333 57.283 17.602 80.392 30.217 137.272 50.93a513.15 513.15 0 00139.3 30.673" stroke="#fff" stroke-width=".8" stroke-miterlimit="10"/><path d="M-135.715 425.298a324.018 324.018 0 00186.653-4.882c61.267-20.635 94.205-56.372 134.265-83.322 95.038-63.936 128.888-115.738 181.94-125.633 51.724-9.647 93.554-17.562 134.251-23.59 50.254-7.447 57.466-4.362 97.643 1.302 40.801 22.015 136.438-1.823 189.92-14.816 51.477-12.498 54.368-13.305 98.294 2.773 57.387 21.013 79.35 32.326 131.599 51.751a468.42 468.42 0 00138 29.774" stroke="#fff" stroke-width=".8" stroke-miterlimit="10"/><path d="M-135.715 436.403c48.47 14.022 113.916 18.747 180.886-3.736 60.785-20.414 91.653-56.698 133.848-84.624 90.182-59.679 123.68-105.844 176.888-116.194 58.013-11.275 104.152-22.302 150.135-32.3 55.07-11.991 67.048-20.362 110.661-9.114 45.189 11.652 131.961-1.301 181.849-12.289 47.858-10.494 50.774-10.416 96.666 8.865 57.674 24.307 78.322 34.475 126.052 52.571 29.67 11.249 74.43 25.96 136.7 28.876" stroke="#fff" stroke-width=".8" stroke-miterlimit="10"/><path d="M-135.715 447.704C-86.113 462.493-23.322 466.23 39.39 445.1c60.265-20.31 89.089-57.062 133.445-85.925 85.261-55.5 118.277-96.159 171.85-106.756 64.314-12.733 114.853-26.962 165.992-41.01 60.03-16.495 75.015-29.045 123.68-19.528 46.387 9.113 127.482-.886 173.803-9.765 44.265-8.488 47.285-7.707 95.039 14.972 57.96 27.509 77.254 36.662 120.421 53.378 29.24 11.327 73.34 26.038 135.4 27.991" stroke="#fff" stroke-width=".8" stroke-miterlimit="10"/><path d="M-135.715 459.134c50.774 15.623 110.87 18.305 169.325-1.458 59.744-20.205 86.498-57.44 133.041-87.227 80.301-51.399 112.874-86.602 166.799-97.317 70.68-14.047 125.633-31.584 181.862-49.719 65.095-20.987 82.996-37.43 136.699-29.944 47.649 6.64 123.003-.404 165.744-7.239 40.593-6.509 43.809-5.012 93.411 21.078 58.325 30.66 76.187 38.888 114.814 54.185 28.82 11.418 72.23 26.181 134.1 27.093" stroke="#fff" stroke-width=".8" stroke-miterlimit="10"/><path d="M-135.715 470.734c51.855 16.365 109.36 18.07 163.544-.325 59.224-20.115 83.882-57.87 132.638-88.529 75.288-47.363 106.534-83.465 161.76-87.879 78.296-6.262 136.439-36.192 197.719-58.429 70.212-25.465 93.737-58.585 149.719-40.359 46.764 15.272 118.472 0 157.698-4.712 36.948-4.492 40.359-2.37 91.784 27.17 58.729 33.758 75.08 41.179 109.193 55.005 28.39 11.522 71.13 26.299 132.79 26.208" stroke="#fff" stroke-width=".8" stroke-miterlimit="10"/><path d="M-135.715 482.712c52.987 17.159 107.836 17.81 157.777.885 58.69-20.023 81.225-58.351 132.221-89.831 70.302-43.392 101.118-73.128 156.709-78.439 84.623-8.111 147.31-40.789 213.602-67.139 75.38-29.944 100.728-65.238 162.737-50.774 49.186 11.482 114.02.494 149.627-2.188 33.316-2.512 37.026.222 90.157 33.277 59.197 36.818 73.985 43.496 103.595 55.812 27.95 11.639 70.03 26.403 131.49 25.309" stroke="#fff" stroke-width=".8" stroke-miterlimit="10"/><path d="M-135.715 495.444c54.107 17.953 106.3 17.602 151.997 1.953 58.168-19.932 78.543-58.885 131.817-91.133 65.173-39.46 95.689-62.79 151.671-69 90.976-10.09 158.193-45.372 229.459-75.836 80.613-34.461 108.057-71.188 175.756-61.189 51.477 7.603 109.515.911 141.581.325 29.657-.547 33.706 2.786 88.529 39.383 59.692 39.851 72.905 45.866 97.965 56.632 27.51 11.795 69 26.507 130.19 24.411" stroke="#fff" stroke-width=".8" stroke-miterlimit="10"/><path d="M-135.715 508.398c55.24 18.747 104.777 17.367 146.216 3.099 57.648-19.854 75.823-59.51 131.414-92.435 60.082-35.594 90.221-52.48 146.619-59.562 97.278-12.212 169.117-49.967 245.33-84.545 85.925-38.966 115.686-76.591 188.775-71.605 53.638 3.659 105.024 1.302 133.522 2.851 25.986 1.393 30.439 5.299 86.902 45.489 60.267 42.871 71.707 48.339 92.357 57.453 27.04 11.99 67.83 26.623 128.89 23.512" stroke="#fff" stroke-width=".8" stroke-miterlimit="10"/><path d="M-135.715 522.498c56.372 19.528 103.215 17.055 140.436 4.231 57.088-19.893 73.036-60.239 131.01-93.737 54.966-31.766 84.74-42.181 141.581-50.123 103.527-14.464 180.052-54.549 261.134-93.255 91.133-43.47 123.928-76.083 201.794-82.019 55.487-4.219 100.52 1.692 125.477 5.376 22.354 3.307 27.21 7.812 85.274 51.582 60.849 45.905 70.539 50.774 86.729 58.26 26.54 12.276 66.74 26.741 127.59 22.627" stroke="#fff" stroke-width=".8" stroke-miterlimit="10"/><path d="M-135.715 536.454c57.492 20.323 101.691 16.834 134.668 5.377 56.555-19.802 70.16-61.111 130.594-95.039 49.836-27.977 79.233-31.896 136.53-40.684 109.763-16.834 191.014-59.145 277.069-101.952 96.458-48.001 132.338-83.321 214.813-92.434 57.284-6.302 96.041 1.991 117.405 7.889 18.735 5.208 24.033 10.285 83.647 57.687 61.499 48.899 69.339 53.287 81.139 59.08 25.93 12.733 65.62 26.832 126.28 21.716" stroke="#fff" stroke-width=".8" stroke-miterlimit="10"/><path d="M-135.715 550.423c58.586 21.104 100.246 16.612 128.888 6.51 55.981-19.711 67.204-62.192 130.19-96.341 44.707-24.241 73.713-21.611 131.491-31.245 115.934-19.333 201.976-63.793 292.927-110.662 101.782-52.518 140.852-90.599 227.832-102.85 59.301-8.345 91.614 2.24 109.359 10.416 15.141 6.978 20.831 12.745 82.02 63.793 62.168 51.906 68.088 55.851 75.508 59.887 25.09 13.657 64.52 26.949 124.98 20.83" stroke="#fff" stroke-width=".8" stroke-miterlimit="10"/></svg>