<svg width="1440" height="673" fill="none" xmlns="http://www.w3.org/2000/svg"><path d="M-520.308 362.716c137.456-11.502 234.465-48.085 298.04-79.757 64.289-32.029 110.59-67.164 195.196-86.054 93.315-20.989 154.288-11.586 178.404-6.297 33.435 7.346 31.357 12.342 86.053 29.385 105.07 32.742 125.03 18.176 172.108 39.878 78.057 35.975 54.781 90.567 136.427 151.119 59.125 43.867 157.017 78.771 245.568 54.571 83.388-22.794 92.77-80.03 180.503-88.153 36.039-3.337 66.009 4.072 125.929 18.89 76.8 18.89 128.37 42.188 149.02 50.373 61.19 24.284 159.94 39.564 321.13-8.395" stroke="#fff" stroke-width=".8" stroke-miterlimit="10"/><path d="M-521.231 381.228c132.963-9.928 232.366-43.048 301.713-75.874 56.333-27.034 99.297-56.67 158.506-77.847 12.95-4.618 26.593-9.089 41.285-12.951 92.581-24.304 153.323-20.296 178.677-17.84 34.002 3.274 34.002 7.01 87.607 23.57 37.78 11.649 64.688 18.303 85.529 22.668 35.429 7.409 53.165 7.913 81.122 22.164a152.185 152.185 0 0129.174 19.247c41.411 34.736 39.648 78.771 108.344 125.45 59.797 40.634 157.038 71.362 244.078 47.329a212.04 212.04 0 0020.359-6.758c67.29-26.215 82.402-72.327 159.514-79.568a183.457 183.457 0 0124.452-.693c27.411.966 55.751 7.808 100.621 18.89 74.34 18.47 125.11 41.327 147.89 50.373a320.52 320.52 0 0051.42 15.406c60.7 12.929 146.5 14.272 267.21-18.722" stroke="#fff" stroke-width=".8" stroke-miterlimit="10"/><path d="M-522.154 401.377c128.451-8.395 230.351-37.779 305.386-72.159 59.587-27.285 104.545-58.454 162.662-80.702 13.265-5.1 27.013-10.263 41.768-14.692 91.847-27.642 152.273-30.979 178.971-29.384 34.4 2.099 36.688 1.7 89.118 17.756 36.709 11.271 63.512 18.89 83.955 24.242 34.442 8.963 51.002 10.768 77.154 25.565a170.984 170.984 0 0127.957 19.96c40.005 34.505 41.978 75.895 110.758 118.377 60.469 37.38 157.059 63.931 242.588 40.067 7.241-2.099 13.936-4.198 20.212-6.716 69.41-26.698 84.773-70.669 159.052-77.659a183.524 183.524 0 0124.263-.776c27.87.818 56.17 7.472 99.95 18.449 71.91 17.966 121.84 40.445 146.75 50.142a332.457 332.457 0 0050.96 15.448c60.16 13.223 145.56 16.014 265.07-13.706" stroke="#fff" stroke-width=".8" stroke-miterlimit="10"/><path d="M-523.057 422.891c123.939-6.78 228.274-32.701 309.059-68.34 62.757-27.705 109.771-60.3 166.756-83.64 13.6-5.583 27.474-11.418 42.25-16.434 91.112-30.937 151.119-37.423 179.265-40.949 34.82-4.345 39.375-3.61 90.65 11.943 35.681 10.851 62.379 19.456 82.528 25.795 33.435 10.494 48.862 13.642 73.209 28.964a200.137 200.137 0 0126.571 20.674c38.599 34.254 44.434 72.978 113.13 111.241 61.224 34.127 157.079 56.522 241.097 32.805 7.178-2.099 13.832-4.198 20.065-6.653 71.488-27.286 87.167-69.032 158.57-75.98 8.005-.813 16.054-1.1 24.097-.86 28.33.65 56.67 7.157 99.3 17.924 69.43 17.442 118.56 39.522 145.59 50.037a354.912 354.912 0 0050.57 15.469c59.6 13.517 144.61 17.777 262.9-8.689" stroke="#fff" stroke-width=".8" stroke-miterlimit="10"/><path d="M-523.98 444.446c119.446-5.205 226.174-27.621 312.732-64.54 65.946-28.146 114.997-62.19 170.89-86.579 13.915-6.066 27.894-12.593 42.733-18.176 90.377-34.17 149.838-45.798 179.558-52.472 35.115-7.892 41.978-8.92 92.183 6.129 34.736 10.494 61.203 20.023 81.016 27.285 32.428 12.006 46.7 16.539 69.263 32.365a247.035 247.035 0 0125.187 21.366c37.213 33.96 46.91 70.04 115.543 104.209 61.979 30.854 157.079 49.114 239.607 25.565 7.094-2.099 13.706-4.198 19.918-6.612 73.587-27.852 89.538-67.164 158.087-74.195a195.832 195.832 0 0123.923-.944c28.76.503 57.01 6.842 98.65 17.399 67 16.959 115.31 38.662 144.47 49.932a372.157 372.157 0 0050.14 15.511c59.08 13.832 143.69 19.52 260.78-3.652" stroke="#fff" stroke-width=".8" stroke-miterlimit="10"/><path d="M-524.862 458.341c114.955-3.631 224.096-22.521 316.405-60.721 69.116-28.607 120.223-64.162 175.025-89.517 14.21-6.569 28.335-13.705 43.216-19.918 89.6-37.402 148.579-54.067 179.789-64.037 35.429-11.292 44.727-14.251 93.715.315a719.86 719.86 0 0179.526 28.923c31.483 13.495 44.559 19.456 65.275 35.681 9.046 7.115 16.224 14.692 23.99 22.059 35.828 33.582 49.407 67.164 117.915 97.136 62.798 27.558 157.1 41.704 238.117 18.323 7.031-2.099 13.6-4.198 19.771-6.57 75.706-28.355 91.931-65.589 157.625-72.411a200.436 200.436 0 0123.743-1.007c29.21.398 57.42 6.506 97.93 16.791 64.54 16.413 112.06 37.779 143.31 49.806a391.82 391.82 0 0049.76 15.532c58.54 14.146 142.73 21.303 258.63 1.385" stroke="#fff" stroke-width=".8" stroke-miterlimit="10"/><path d="M-525.828 468.247c110.443-2.098 221.998-17.483 320.078-56.921 72.285-29.069 125.408-66.178 179.16-92.351 14.524-7.094 28.754-14.86 43.698-21.66 88.93-40.571 147.446-62.253 180.126-75.559 35.681-14.588 47.392-19.583 95.247-5.52a491.515 491.515 0 0177.994 30.349c30.454 14.944 42.418 22.374 61.329 39.165 8.395 7.409 15.007 15.301 22.71 22.752 34.463 33.372 51.947 64.058 120.286 90.063 63.659 24.221 157.143 34.295 236.648 11.061 6.947-2.099 13.454-4.198 19.624-6.528 77.827-28.796 94.387-63.889 157.143-70.459a200.587 200.587 0 0123.575-1.091c29.63.252 57.84 6.17 97.24 16.329 62.08 15.93 108.78 36.898 142.17 49.722a419.334 419.334 0 0049.35 15.553c58.01 14.461 141.8 23.088 256.5 6.402" stroke="#fff" stroke-width=".8" stroke-miterlimit="10"/><path d="M-526.73 478.301c105.93-.483 219.856-12.446 323.751-53.122 75.433-29.553 130.55-68.256 183.252-95.373 14.84-7.661 29.217-16.057 44.203-23.403 88.215-43.698 146.312-70.312 180.398-87.103 36.163-17.798 50.079-24.893 96.779-11.334a371.203 371.203 0 0176.504 32.071c29.384 16.35 40.256 25.333 57.383 42.544 7.682 7.724 13.768 15.868 21.387 23.465 33.121 33.016 54.571 60.973 122.7 82.969 64.541 20.842 157.143 26.866 235.074 3.82 6.884-2.099 13.349-4.198 19.478-6.507 79.946-29.384 96.695-62.273 156.681-68.801a209.847 209.847 0 0123.38-1.175c30.1 0 58.27 5.835 96.55 15.825 59.65 15.385 105.51 36.017 141.04 49.576 16 6.144 32.35 11.358 48.95 15.616 57.47 14.692 140.85 24.787 254.34 11.417" stroke="#fff" stroke-width=".8" stroke-miterlimit="10"/><path d="M-527.653 488.397c101.438 1.091 217.758-7.409 327.424-49.324 78.603-30.035 135.713-70.354 187.387-98.29 15.112-8.165 29.657-17.127 44.664-25.187 87.523-46.826 145.242-78.372 180.713-98.647 36.604-20.989 52.745-30.224 98.311-17.169a300.563 300.563 0 0174.993 33.582c28.482 17.778 38.074 28.314 53.416 45.945 6.99 8.059 12.594 16.413 20.108 24.158 31.777 32.679 57.152 57.845 125.072 75.895 65.463 17.4 157.163 19.457 233.646-3.442 6.821-2.099 13.244-4.198 19.331-6.444 82.087-29.825 99.066-60.615 156.219-67.017a220.027 220.027 0 0123.209-1.259c30.54-.189 58.77 5.52 95.9 15.301 57.18 14.881 102.24 35.156 139.89 49.47a477.13 477.13 0 0048.53 15.721c56.94 15.07 139.93 26.551 252.22 16.455" stroke="#fff" stroke-width=".8" stroke-miterlimit="10"/><path d="M-528.577 498.45c96.947 2.603 215.701-2.455 331.139-45.587 81.856-30.539 140.834-72.495 191.522-101.208 15.406-8.731 30.098-18.26 45.147-26.908 86.809-49.89 144.171-86.347 181.007-110.212 37.129-24.074 55.431-35.533 99.843-22.982a252.209 252.209 0 0173.461 35.219c27.495 19.142 35.89 31.315 49.449 49.344 6.297 8.396 11.355 16.938 18.89 24.851 30.476 32.323 59.818 54.571 127.486 68.801 66.387 13.916 157.163 12.048 232.156-10.683a649.055 649.055 0 0019.184-6.297c84.206-30.286 101.438-58.978 155.715-65.212a209.764 209.764 0 0123.088-1.343c30.98-.21 59.1 5.184 95.23 14.692 54.71 14.377 98.96 34.296 138.75 49.366 14.38 5.457 30.31 10.851 48.13 15.678 56.4 15.364 138.99 28.314 250.06 21.472" stroke="#fff" stroke-width=".8" stroke-miterlimit="10"/><path d="M-529.501 508.21c92.35 4.198 213.518 2.603 334.77-41.725C-109.81 435.442-48.796 391.807.926 362.338c15.679-9.298 30.539-19.372 45.63-28.649 86.179-52.955 143.227-94.303 181.279-121.735 37.654-27.285 58.097-40.844 101.376-28.797a217.98 217.98 0 0171.991 36.773c26.551 20.527 33.582 34.358 45.483 52.744 5.604 8.732 10.158 17.484 17.525 25.544 29.175 31.924 62.463 51.38 129.858 61.707 67.394 10.326 157.184 4.617 230.666-17.946a656.311 656.311 0 0019.037-6.296c86.347-30.749 103.831-57.342 155.316-63.428a208.704 208.704 0 0122.853-1.407c31.49-.398 59.53 4.849 94.45 14.231 52.29 13.852 95.69 33.435 137.63 49.239 14.31 5.415 30.12 10.789 47.72 15.721 55.86 15.658 138.05 30.056 247.92 26.509" stroke="#fff" stroke-width=".8" stroke-miterlimit="10"/><path d="M-530.403 517.844c87.921 5.814 211.377 7.598 338.443-37.906 88.153-31.483 150.993-76.903 199.75-107.042 15.972-9.886 31-20.485 46.175-30.392 85.508-56.04 142.262-102.215 181.51-133.342 38.263-30.265 60.868-46.175 102.845-34.61 27.873 7.682 53.186 23.57 70.501 38.325 25.628 21.871 31.483 37.402 41.537 56.145 4.869 9.067 8.941 18.03 16.203 26.257 27.894 31.483 65.065 48.043 132.229 54.571 68.277 6.695 157.206-2.792 229.176-25.187a706.927 706.927 0 0018.89-6.296c88.468-31.231 106.182-55.725 154.774-61.644 7.53-.9 15.1-1.397 22.69-1.49 31.88-.609 59.92 4.512 93.86 13.705 49.82 13.349 92.35 32.575 136.42 49.135 14.26 5.352 29.93 10.746 47.31 15.741 55.33 15.973 137.12 31.819 245.78 31.484" stroke="#fff" stroke-width=".8" stroke-miterlimit="10"/><path d="M-531.326 527.352c83.43 7.409 209.174 12.341 342.116-34.107 91.154-32.239 156.051-79.127 203.885-110.002 16.224-10.494 31.483-21.597 46.615-32.134 84.921-58.999 141.402-110.17 181.847-144.822 38.892-33.33 63.428-51.464 104.44-40.424 26.886 7.304 52.073 24.032 68.99 39.878 24.704 23.214 29.153 40.425 37.57 59.545 4.197 9.403 7.744 18.533 14.923 26.929 26.613 31.147 67.73 44.664 134.642 47.581 69.263 3.002 157.227-10.2 227.686-32.448a622.283 622.283 0 0018.743-6.297c90.629-31.651 108.575-54.088 154.309-59.839 7.47-.924 14.98-1.449 22.5-1.574 32.32-.776 60.36 4.198 93.21 13.181 47.35 12.824 89.1 31.798 135.34 49.03 14.18 5.331 29.72 10.683 46.91 15.762 54.78 16.288 136.17 33.582 243.63 36.563" stroke="#fff" stroke-width=".8" stroke-miterlimit="10"/><path d="M-532.25 536.713c78.918 8.962 207.075 17.358 345.789-30.308 94.324-32.721 161.13-81.415 208.02-112.898 16.476-11.061 31.902-22.71 47.098-33.876 84.312-62.001 140.625-118.083 182.119-156.387 39.564-36.416 66.115-56.859 105.889-46.302 25.921 6.906 51.002 24.494 67.478 41.474 23.823 24.557 26.866 43.489 33.582 62.966 3.401 9.76 6.57 19.079 13.622 27.622 25.501 30.727 70.543 43.32 137.182 40.487 70.061-2.98 157.248-17.61 226.217-39.69a654.733 654.733 0 0018.596-6.296c92.812-31.945 110.946-52.472 153.828-58.055 7.41-.932 14.86-1.478 22.33-1.637 32.76-.924 60.87 3.862 92.52 12.593 44.81 12.425 85.82 31.168 134.18 49.03 14.13 5.289 29.53 10.641 46.49 15.804 54.26 16.602 135.25 35.345 241.5 41.6" stroke="#fff" stroke-width=".8" stroke-miterlimit="10"/><path d="M-533.257 545.969c74.426 10.494 204.976 22.395 349.462-26.509 97.493-33.204 166.084-83.682 212.133-115.879C45.13 391.911 60.725 379.78 75.92 367.9c83.745-65.065 139.743-125.932 182.434-167.91 40.319-39.459 68.927-62.085 107.588-52.052 24.935 6.507 49.911 24.935 65.968 43.048 22.94 25.858 24.515 46.511 29.657 66.324 2.644 10.117 5.394 19.604 12.341 28.335 24.137 30.308 72.915 37.78 139.428 33.414 70.984-4.596 157.248-25.018 224.706-46.93 6.296-2.099 12.593-4.198 18.449-6.297 94.932-32.428 113.339-50.877 153.369-56.271 7.34-.957 14.73-1.531 22.14-1.721 33.2-1.091 61.2 3.547 91.85 12.111 42.46 11.816 82.56 30.097 133.04 48.819 14.09 5.248 29.39 10.495 46.18 15.847 53.71 16.791 134.33 37.087 239.27 46.616" stroke="#fff" stroke-width=".8" stroke-miterlimit="10"/><path d="M-534.076 555.12c69.913 12.11 202.835 27.432 353.135-22.689C-80.195 498.744-9.883 446.377 35.243 413.614c16.959-12.3 32.868-24.893 48.064-37.36 83.305-67.836 138.946-133.909 182.602-179.496 40.97-42.628 71.467-67.437 109.142-57.866 23.948 6.108 48.861 25.375 64.477 44.601 22.08 27.285 22.143 49.533 25.711 69.725 1.826 10.494 4.198 20.128 11.019 29.027 22.92 29.888 75.56 34.17 141.821 26.341 71.844-8.396 157.29-32.428 223.215-54.193 6.297-2.099 12.446-4.198 18.302-6.129 97.073-32.91 115.69-49.344 152.884-54.57 7.34-.944 14.72-1.504 22.12-1.68a281.747 281.747 0 0191.09 11.544c40.01 11.313 79.3 29.238 131.92 48.715a1213.697 1213.697 0 0045.69 15.868 1276.096 1276.096 0 00237.13 51.653" stroke="#fff" stroke-width=".8" stroke-miterlimit="10"/><path d="M-535 564.208c65.422 13.685 200.736 32.47 356.808-18.89C-74.36 511.149-2.18 457.019 42.19 423.583c196.937-148.537 259.274-314.432 342.116-293.842 22.962 5.709 47.813 25.816 62.966 46.175 32.365 43.447 11.964 76.399 31.483 102.845 47.855 64.855 263.115-7.577 384.094-48.274 117.957-39.69 122.322-52.472 174.211-54.571 90.56-3.715 137.64 32.659 266.55 75.56a1453.778 1453.778 0 00235.08 56.669" stroke="#fff" stroke-width=".8" stroke-miterlimit="10"/><path d="M-535 570.211c67.164 14.965 198.281 32.113 347.489-17.043C-84.519 519.145-15.403 464.491 32.22 429.334 222.462 289.067 281.797 137.15 366.193 150.709c32.973 5.289 66.45 15.888 88.551 32.134 43.426 31.944 27.286 60.51 52.472 86.053 55.138 55.956 255.916-6.863 371.102-44.202 112.206-36.499 116.739-46.826 171.582-44.727 91.13 3.484 136.07 35.681 257.51 76.861a1274.858 1274.858 0 00233.02 55.221" stroke="#fff" stroke-width=".8" stroke-miterlimit="10"/><path d="M-535 576.465a631.754 631.754 0 00338.17-15.216c102.153-33.855 168.078-89.077 219.08-125.933 183.295-132.355 240.678-272.56 325.851-263.409 43.215 4.66 83.85 5.835 114.115 18.114 51.926 20.988 41.81 44.286 73.461 69.262 60.468 47.666 248.716-6.17 358.131-40.151 106.262-33.309 110.992-41.39 168.962-34.883 91.47 10.242 134.47 38.913 248.44 78.183a1132.266 1132.266 0 00230.88 53.773" stroke="#fff" stroke-width=".8" stroke-miterlimit="10"/><path d="M-535 587.59a603.52 603.52 0 00328.872-13.391c101.292-33.708 164.048-89.496 218.41-128.032 175.969-124.715 232.386-238.39 317.705-248.192 53.375-6.128 100.578-3.61 139.722 4.072 59.147 11.586 55.705 28.104 94.45 52.472 64.141 40.341 241.538-5.247 345.117-36.08 100.494-29.908 105.174-36.142 166.334-25.06 91.76 16.623 132.88 42.124 239.42 79.505a1012.123 1012.123 0 00228.78 52.346" stroke="#fff" stroke-width=".8" stroke-miterlimit="10"/><path d="M-535 604.527A575.487 575.487 0 00-215.447 592.9c100.452-33.582 160.018-89.937 217.758-130.131C170.83 345.463 226.66 242.639 311.895 229.794c63.323-9.529 119.237-24.095 165.286-9.969 63.365 19.435 65.737 20.779 115.438 35.681 59.797 45.356 234.36-4.387 332.147-32.008 94.664-26.656 99.314-31.064 163.714-15.217 91.99 22.647 131.24 45.399 230.35 80.807a912.126 912.126 0 00226.68 50.897" stroke="#fff" stroke-width=".8" stroke-miterlimit="10"/><path d="M-535 621.864a548.707 548.707 0 00310.276-9.697c99.613-33.414 155.968-90.398 217.108-132.229 160.899-110.107 216.1-203.024 301.314-217.758 73.461-12.677 134.58-32.785 190.997-23.99 72.747 11.334 79.191 6.884 136.427 18.89 62.736 40.361 227.119-3.715 319.029-27.957 88.829-23.403 93.479-26.194 161.089-5.373 92.35 28.376 129.6 48.714 221.3 82.107a827.336 827.336 0 00224.58 49.45" stroke="#fff" stroke-width=".8" stroke-miterlimit="10"/><path d="M-535 639.537a522.364 522.364 0 00300.915-7.871c98.773-33.267 151.875-90.881 216.457-134.328C135.59 394.262 190.161 310.748 275.69 294.797c83.388-15.553 150.825-28.314 216.435-38.032 81.017-12.006 92.645-7.031 157.416 2.099 65.779 35.492 219.962-2.939 306.183-23.885 82.986-20.15 87.646-21.451 158.466 4.47 92.52 33.876 127.93 52.115 212.15 83.431a755.18 755.18 0 00222.48 48.001" stroke="#fff" stroke-width=".8" stroke-miterlimit="10"/><path d="M-535 657.44c78.141 22.605 183.651 30.224 291.617-6.024 97.997-32.91 147.761-91.406 215.786-136.427 145.388-96.212 199.392-170.638 285.173-187.324 93.526-18.176 167.91-35.954 242.042-52.073 88.783-19.331 108.092-32.827 178.405-14.692 72.851 18.785 212.741-2.099 293.17-19.814 77.157-16.917 81.857-16.791 155.837 14.294 92.98 39.186 126.27 55.578 203.22 84.752 47.83 18.134 119.99 41.852 220.38 46.553" stroke="#fff" stroke-width=".8" stroke-miterlimit="10"/><path d="M-535 675.658c79.967 23.844 181.196 29.867 282.298-4.197 97.157-32.743 143.626-91.994 215.135-138.526C99.888 443.46 153.115 377.912 239.484 360.827c103.684-20.527 185.163-43.468 267.606-66.115 96.779-26.592 120.937-46.825 199.393-31.483 74.783 14.692 205.522-1.427 280.2-15.741 71.357-13.685 76.227-12.426 153.217 24.137 93.44 44.349 124.55 59.104 194.15 86.054 47.14 18.26 118.23 41.977 218.28 45.126" stroke="#fff" stroke-width=".8" stroke-miterlimit="10"/><path d="M-535 694.086c81.856 25.187 178.74 29.511 272.979-2.35 96.318-32.575 139.449-92.603 214.484-140.625C81.922 468.247 134.435 411.494 221.371 394.22c113.948-22.647 202.541-50.919 293.191-80.156 104.944-33.834 133.803-60.343 220.382-48.274 76.819 10.704 198.301-.651 267.206-11.67 65.44-10.494 70.63-8.08 150.6 33.981 94.02 49.429 122.82 62.693 185.1 87.355 46.46 18.407 116.44 42.209 216.18 43.678" stroke="#fff" stroke-width=".8" stroke-miterlimit="10"/><path d="M-535 712.787c83.598 26.383 176.305 29.133 263.66-.524 95.478-32.428 135.231-93.295 213.834-142.724C63.87 493.182 114.244 434.98 203.279 427.865c126.226-10.095 219.961-58.349 318.755-94.197 113.193-41.054 151.119-94.45 241.371-65.066 75.391 24.62 190.997 0 254.235-7.597 59.57-7.242 65.07-3.82 147.97 43.803 94.68 54.424 121.04 66.387 176.03 88.678 45.78 18.575 114.69 42.397 214.09 42.25" stroke="#fff" stroke-width=".8" stroke-miterlimit="10"/><path d="M-535 732.097c85.424 27.663 173.85 28.713 254.362 1.427 94.618-32.28 130.949-94.071 213.162-144.822 113.339-69.956 163.02-117.894 252.641-126.457 136.427-13.076 237.488-65.758 344.362-108.239 121.525-48.274 162.39-105.175 262.359-81.856 79.296 18.512 183.82.797 241.224-3.527 53.71-4.05 59.69.357 145.35 53.648 95.43 59.356 119.28 70.123 167 89.978 45.07 18.764 112.9 42.566 211.99 40.803" stroke="#fff" stroke-width=".8" stroke-miterlimit="10"/><path d="M-535 752.624c87.229 28.944 171.373 28.377 245.043 3.148 93.778-32.133 126.625-94.932 212.511-146.921 105.07-63.617 154.267-101.229 244.519-111.24 146.669-16.267 255.034-73.146 369.926-122.26 129.962-55.557 174.207-114.766 283.348-98.647 82.989 12.258 176.557 1.469 228.253.525 47.81-.882 54.34 4.491 142.72 63.491 96.24 64.246 117.54 73.943 157.94 91.301 44.35 19.016 111.24 42.733 209.89 39.354" stroke="#fff" stroke-width=".8" stroke-miterlimit="10"/><path d="M-535 773.508c89.055 30.224 168.917 27.999 235.724 4.995 92.939-32.008 122.239-95.939 211.86-149.02C9.449 572.1 58.037 544.877 148.96 533.46c156.827-19.688 272.643-80.555 395.511-136.301 138.526-62.82 186.506-123.477 304.337-115.438 86.473 5.897 169.312 2.098 215.262 4.596 41.89 2.246 49.07 8.542 140.1 73.335 97.15 69.116 115.6 77.931 148.89 92.623 43.6 19.331 109.35 42.922 207.79 37.906" stroke="#fff" stroke-width=".8" stroke-miterlimit="10"/><path d="M-535 796.239c90.881 31.483 166.399 27.495 226.405 6.821 92.036-32.071 117.747-97.115 211.21-151.119 88.614-51.212 136.616-68.003 228.252-80.807 166.903-23.318 290.274-87.942 420.992-150.342 146.921-70.081 199.792-122.658 325.326-132.229 89.453-6.801 162.055 2.728 202.285 8.668 36.04 5.331 43.87 12.593 137.48 83.158 98.1 74.006 113.72 81.856 139.83 93.924 42.77 19.793 107.59 43.111 205.69 36.479" stroke="#fff" stroke-width=".8" stroke-miterlimit="10"/><path d="M-535 818.739c92.686 32.763 163.943 27.138 217.107 8.668 91.175-31.924 113.109-98.521 210.538-153.218 80.345-45.105 127.738-51.422 220.109-65.59 176.956-27.138 307.947-95.352 446.682-164.363 155.506-77.385 213.351-134.328 346.314-149.02 92.351-10.158 154.83 3.212 189.28 12.719 30.2 8.396 38.74 16.582 134.85 93.002 99.15 78.833 111.79 85.907 130.8 95.247 41.81 20.527 105.81 43.257 203.59 35.009" stroke="#fff" stroke-width=".8" stroke-miterlimit="10"/><path d="M-535 841.259c94.449 34.023 161.613 26.782 207.788 10.495 90.252-31.777 108.344-100.263 209.888-155.317 72.075-39.081 118.838-34.841 211.986-50.373C281.567 614.896 420.28 543.219 566.908 467.66c164.09-84.669 227.077-146.061 367.303-165.811 95.599-13.454 147.699 3.61 176.309 16.791 24.41 11.25 33.58 20.548 132.23 102.844 100.22 83.683 109.77 90.042 121.73 96.549 40.45 22.017 104.02 43.446 201.49 33.582" stroke="#fff" stroke-width=".8" stroke-miterlimit="10"/></svg>